<?xml version="1.0" standalone="no"?>
<!DOCTYPE svg PUBLIC "-//W3C//DTD SVG 20010904//EN"
 "http://www.w3.org/TR/2001/REC-SVG-20010904/DTD/svg10.dtd">
<svg version="1.0" xmlns="http://www.w3.org/2000/svg"
 width="1280.000000pt" height="1280.000000pt" viewBox="0 0 1280.000000 1280.000000"
 preserveAspectRatio="xMidYMid meet">
<g transform="translate(0.000000,1280.000000) scale(0.100000,-0.100000)"
fill="#000000" stroke="none">
<path d="M0 12515 l0 -286 52 6 c273 31 482 240 513 513 l6 52 -286 0 -285 0
0 -285z"/>
<path d="M1995 12748 c26 -229 180 -419 396 -488 102 -33 236 -33 338 0 216
69 370 259 396 488 l6 52 -571 0 -571 0 6 -52z"/>
<path d="M4555 12748 c26 -229 180 -419 396 -488 102 -33 236 -33 338 0 216
69 370 259 396 488 l6 52 -571 0 -571 0 6 -52z"/>
<path d="M7115 12748 c26 -229 180 -419 396 -488 102 -33 236 -33 338 0 216
69 370 259 396 488 l6 52 -571 0 -571 0 6 -52z"/>
<path d="M9675 12748 c26 -229 180 -419 396 -488 102 -33 236 -33 338 0 216
69 370 259 396 488 l6 52 -571 0 -571 0 6 -52z"/>
<path d="M12235 12748 c31 -273 240 -482 513 -513 l52 -6 0 286 0 285 -285 0
-286 0 6 -52z"/>
<path d="M1165 12310 c-93 -15 -158 -37 -256 -87 -196 -100 -347 -293 -405
-518 -24 -95 -24 -275 0 -370 62 -241 225 -437 448 -539 113 -52 196 -70 328
-70 131 0 215 18 327 69 224 103 387 298 449 540 24 95 24 275 0 370 -63 244
-223 435 -451 541 -41 19 -102 41 -137 49 -82 19 -227 26 -303 15z"/>
<path d="M3725 12310 c-213 -34 -422 -163 -537 -333 -98 -144 -142 -285 -142
-457 0 -131 18 -215 69 -327 82 -179 219 -316 397 -397 113 -52 196 -70 328
-70 131 0 215 18 327 69 224 103 387 298 449 540 24 95 24 275 0 370 -63 244
-223 435 -451 541 -41 19 -102 41 -137 49 -82 19 -227 26 -303 15z"/>
<path d="M6285 12310 c-213 -34 -422 -163 -537 -333 -98 -144 -142 -285 -142
-457 0 -131 18 -215 69 -327 82 -179 219 -316 397 -397 113 -52 196 -70 328
-70 131 0 215 18 327 69 179 82 316 219 397 397 52 113 70 196 70 328 0 216
-74 398 -223 553 -99 104 -249 190 -383 222 -82 19 -227 26 -303 15z"/>
<path d="M8845 12310 c-213 -34 -422 -163 -537 -333 -98 -144 -142 -285 -142
-457 0 -131 18 -215 69 -327 82 -179 219 -316 397 -397 113 -52 196 -70 328
-70 131 0 215 18 327 69 179 82 316 219 397 397 52 113 70 196 70 328 0 216
-74 398 -223 553 -99 104 -249 190 -383 222 -82 19 -227 26 -303 15z"/>
<path d="M11405 12310 c-213 -34 -422 -163 -537 -333 -98 -144 -142 -285 -142
-457 0 -131 18 -215 69 -327 82 -179 219 -316 397 -397 113 -52 196 -70 328
-70 131 0 215 18 327 69 179 82 316 219 397 397 52 113 70 196 70 328 0 216
-74 398 -223 553 -99 104 -249 190 -383 222 -82 19 -227 26 -303 15z"/>
<path d="M0 10240 l0 -571 53 6 c265 31 471 229 508 490 43 314 -186 603 -508
640 l-53 6 0 -571z"/>
<path d="M2468 10800 c-185 -29 -361 -170 -433 -348 -137 -341 85 -722 451
-773 305 -42 592 177 635 487 44 319 -197 615 -521 637 -41 3 -100 2 -132 -3z"/>
<path d="M5028 10800 c-185 -29 -361 -170 -433 -348 -137 -341 85 -722 451
-773 364 -50 685 271 635 635 -37 267 -254 471 -521 489 -41 3 -100 2 -132 -3z"/>
<path d="M7588 10800 c-134 -21 -278 -109 -359 -219 -188 -256 -139 -603 112
-792 250 -189 602 -139 790 112 269 357 35 871 -411 902 -41 3 -100 2 -132 -3z"/>
<path d="M10148 10800 c-134 -21 -278 -109 -359 -219 -188 -256 -139 -603 112
-792 344 -260 840 -52 900 377 44 319 -197 615 -521 637 -41 3 -100 2 -132 -3z"/>
<path d="M12709 10799 c-200 -29 -385 -189 -449 -389 -33 -103 -33 -236 0
-339 69 -216 259 -370 488 -396 l52 -6 0 571 c0 537 -1 570 -17 569 -10 -1
-43 -5 -74 -10z"/>
<path d="M1165 9750 c-93 -15 -158 -37 -256 -87 -196 -100 -347 -293 -405
-518 -24 -95 -24 -275 0 -370 62 -241 225 -437 448 -539 113 -52 196 -70 328
-70 131 0 215 18 327 69 224 103 387 298 449 540 24 95 24 275 0 370 -63 244
-223 435 -451 541 -41 19 -102 41 -137 49 -82 19 -227 26 -303 15z"/>
<path d="M3725 9750 c-213 -34 -422 -163 -537 -333 -98 -144 -142 -285 -142
-457 0 -131 18 -215 69 -327 82 -179 219 -316 397 -397 113 -52 196 -70 328
-70 131 0 215 18 327 69 224 103 387 298 449 540 24 95 24 275 0 370 -63 244
-223 435 -451 541 -41 19 -102 41 -137 49 -82 19 -227 26 -303 15z"/>
<path d="M6285 9750 c-213 -34 -422 -163 -537 -333 -98 -144 -142 -285 -142
-457 0 -131 18 -215 69 -327 82 -179 219 -316 397 -397 113 -52 196 -70 328
-70 131 0 215 18 327 69 179 82 316 219 397 397 52 113 70 196 70 328 0 216
-74 398 -223 553 -99 104 -249 190 -383 222 -82 19 -227 26 -303 15z"/>
<path d="M8845 9750 c-213 -34 -422 -163 -537 -333 -98 -144 -142 -285 -142
-457 0 -131 18 -215 69 -327 82 -179 219 -316 397 -397 113 -52 196 -70 328
-70 131 0 215 18 327 69 179 82 316 219 397 397 52 113 70 196 70 328 0 216
-74 398 -223 553 -99 104 -249 190 -383 222 -82 19 -227 26 -303 15z"/>
<path d="M11405 9750 c-213 -34 -422 -163 -537 -333 -98 -144 -142 -285 -142
-457 0 -131 18 -215 69 -327 82 -179 219 -316 397 -397 113 -52 196 -70 328
-70 131 0 215 18 327 69 179 82 316 219 397 397 52 113 70 196 70 328 0 216
-74 398 -223 553 -99 104 -249 190 -383 222 -82 19 -227 26 -303 15z"/>
<path d="M0 7680 l0 -571 53 6 c265 31 471 229 508 490 43 314 -186 603 -508
640 l-53 6 0 -571z"/>
<path d="M2468 8240 c-185 -29 -361 -170 -433 -348 -137 -341 85 -722 451
-773 305 -42 592 177 635 487 44 319 -197 615 -521 637 -41 3 -100 2 -132 -3z"/>
<path d="M5028 8240 c-185 -29 -361 -170 -433 -348 -137 -341 85 -722 451
-773 305 -42 592 177 635 487 44 319 -197 615 -521 637 -41 3 -100 2 -132 -3z"/>
<path d="M7588 8240 c-134 -21 -278 -109 -359 -219 -188 -256 -139 -603 112
-792 344 -260 840 -52 900 377 44 319 -197 615 -521 637 -41 3 -100 2 -132 -3z"/>
<path d="M10148 8240 c-134 -21 -278 -109 -359 -219 -188 -256 -139 -603 112
-792 344 -260 840 -52 900 377 44 319 -197 615 -521 637 -41 3 -100 2 -132 -3z"/>
<path d="M12709 8239 c-200 -29 -385 -189 -449 -389 -33 -103 -33 -236 0 -339
69 -216 259 -370 488 -396 l52 -6 0 571 c0 537 -1 570 -17 569 -10 -1 -43 -5
-74 -10z"/>
<path d="M1165 7190 c-93 -15 -158 -37 -256 -87 -196 -100 -347 -293 -405
-518 -24 -95 -24 -275 0 -370 62 -241 225 -437 448 -539 113 -52 196 -70 328
-70 131 0 215 18 327 69 224 103 387 298 449 540 24 95 24 275 0 370 -63 244
-223 435 -451 541 -41 19 -102 41 -137 49 -82 19 -227 26 -303 15z"/>
<path d="M3725 7190 c-213 -34 -422 -163 -537 -333 -98 -144 -142 -285 -142
-457 0 -131 18 -215 69 -327 82 -179 219 -316 397 -397 113 -52 196 -70 328
-70 131 0 215 18 327 69 224 103 387 298 449 540 24 95 24 275 0 370 -63 244
-223 435 -451 541 -41 19 -102 41 -137 49 -82 19 -227 26 -303 15z"/>
<path d="M6285 7190 c-213 -34 -422 -163 -537 -333 -98 -144 -142 -285 -142
-457 0 -131 18 -215 69 -327 82 -179 219 -316 397 -397 113 -52 196 -70 328
-70 131 0 215 18 327 69 179 82 316 219 397 397 52 113 70 196 70 328 0 216
-74 398 -223 553 -99 104 -249 190 -383 222 -82 19 -227 26 -303 15z"/>
<path d="M8845 7190 c-213 -34 -422 -163 -537 -333 -98 -144 -142 -285 -142
-457 0 -131 18 -215 69 -327 82 -179 219 -316 397 -397 113 -52 196 -70 328
-70 131 0 215 18 327 69 179 82 316 219 397 397 52 113 70 196 70 328 0 216
-74 398 -223 553 -99 104 -249 190 -383 222 -82 19 -227 26 -303 15z"/>
<path d="M11405 7190 c-213 -34 -422 -163 -537 -333 -98 -144 -142 -285 -142
-457 0 -131 18 -215 69 -327 82 -179 219 -316 397 -397 113 -52 196 -70 328
-70 131 0 215 18 327 69 179 82 316 219 397 397 52 113 70 196 70 328 0 216
-74 398 -223 553 -99 104 -249 190 -383 222 -82 19 -227 26 -303 15z"/>
<path d="M0 5120 l0 -571 53 6 c265 31 471 229 508 490 43 314 -186 603 -508
640 l-53 6 0 -571z"/>
<path d="M2468 5680 c-185 -29 -361 -170 -433 -348 -137 -341 85 -722 451
-773 305 -42 592 177 635 487 44 319 -197 615 -521 637 -41 3 -100 2 -132 -3z"/>
<path d="M5028 5680 c-134 -21 -278 -109 -359 -219 -188 -256 -139 -603 112
-792 344 -260 840 -52 900 377 44 319 -197 615 -521 637 -41 3 -100 2 -132 -3z"/>
<path d="M7588 5680 c-185 -29 -361 -170 -433 -348 -137 -341 85 -722 451
-773 305 -42 592 177 635 487 44 319 -197 615 -521 637 -41 3 -100 2 -132 -3z"/>
<path d="M10148 5680 c-185 -29 -361 -170 -433 -348 -137 -341 85 -722 451
-773 305 -42 592 177 635 487 44 319 -197 615 -521 637 -41 3 -100 2 -132 -3z"/>
<path d="M12709 5679 c-200 -29 -385 -189 -449 -389 -33 -103 -33 -236 0 -339
69 -216 259 -370 488 -396 l52 -6 0 571 c0 537 -1 570 -17 569 -10 -1 -43 -5
-74 -10z"/>
<path d="M1165 4630 c-93 -15 -158 -37 -256 -87 -196 -100 -347 -293 -405
-518 -24 -95 -24 -275 0 -370 62 -241 225 -437 448 -539 113 -52 196 -70 328
-70 131 0 215 18 327 69 224 103 387 298 449 540 24 95 24 275 0 370 -63 244
-223 435 -451 541 -41 19 -102 41 -137 49 -82 19 -227 26 -303 15z"/>
<path d="M3725 4630 c-213 -34 -422 -163 -537 -333 -98 -144 -142 -285 -142
-457 0 -131 18 -215 69 -327 82 -179 219 -316 397 -397 113 -52 196 -70 328
-70 131 0 215 18 327 69 224 103 387 298 449 540 24 95 24 275 0 370 -63 244
-223 435 -451 541 -41 19 -102 41 -137 49 -82 19 -227 26 -303 15z"/>
<path d="M6285 4630 c-213 -34 -422 -163 -537 -333 -98 -144 -142 -285 -142
-457 0 -131 18 -215 69 -327 82 -179 219 -316 397 -397 113 -52 196 -70 328
-70 131 0 215 18 327 69 179 82 316 219 397 397 52 113 70 196 70 328 0 216
-74 398 -223 553 -99 104 -249 190 -383 222 -82 19 -227 26 -303 15z"/>
<path d="M8845 4630 c-213 -34 -422 -163 -537 -333 -98 -144 -142 -285 -142
-457 0 -131 18 -215 69 -327 82 -179 219 -316 397 -397 113 -52 196 -70 328
-70 131 0 215 18 327 69 179 82 316 219 397 397 52 113 70 196 70 328 0 216
-74 398 -223 553 -99 104 -249 190 -383 222 -82 19 -227 26 -303 15z"/>
<path d="M11405 4630 c-213 -34 -422 -163 -537 -333 -98 -144 -142 -285 -142
-457 0 -131 18 -215 69 -327 82 -179 219 -316 397 -397 113 -52 196 -70 328
-70 131 0 215 18 327 69 179 82 316 219 397 397 52 113 70 196 70 328 0 216
-74 398 -223 553 -99 104 -249 190 -383 222 -82 19 -227 26 -303 15z"/>
<path d="M0 2560 l0 -571 53 6 c265 31 471 229 508 490 43 314 -186 603 -508
640 l-53 6 0 -571z"/>
<path d="M2468 3120 c-185 -29 -361 -170 -433 -348 -137 -341 85 -722 451
-773 305 -42 592 177 635 487 44 319 -197 615 -521 637 -41 3 -100 2 -132 -3z"/>
<path d="M5028 3120 c-185 -29 -361 -170 -433 -348 -137 -341 85 -722 451
-773 305 -42 592 177 635 487 44 319 -197 615 -521 637 -41 3 -100 2 -132 -3z"/>
<path d="M7588 3120 c-185 -29 -361 -170 -433 -348 -137 -341 85 -722 451
-773 305 -42 592 177 635 487 44 319 -197 615 -521 637 -41 3 -100 2 -132 -3z"/>
<path d="M10148 3120 c-185 -29 -361 -170 -433 -348 -137 -341 85 -722 451
-773 305 -42 592 177 635 487 44 319 -197 615 -521 637 -41 3 -100 2 -132 -3z"/>
<path d="M12709 3119 c-200 -29 -385 -189 -449 -389 -33 -103 -33 -236 0 -339
69 -216 259 -370 488 -396 l52 -6 0 571 c0 537 -1 570 -17 569 -10 -1 -43 -5
-74 -10z"/>
<path d="M1165 2070 c-93 -15 -158 -37 -256 -87 -196 -100 -347 -293 -405
-518 -24 -95 -24 -275 0 -370 62 -241 225 -437 448 -539 113 -52 196 -70 328
-70 131 0 215 18 327 69 224 103 387 298 449 540 24 95 24 275 0 370 -63 244
-223 435 -451 541 -41 19 -102 41 -137 49 -82 19 -227 26 -303 15z"/>
<path d="M3725 2070 c-213 -34 -422 -163 -537 -333 -98 -144 -142 -285 -142
-457 0 -131 18 -215 69 -327 82 -179 219 -316 397 -397 113 -52 196 -70 328
-70 131 0 215 18 327 69 224 103 387 298 449 540 24 95 24 275 0 370 -63 244
-223 435 -451 541 -41 19 -102 41 -137 49 -82 19 -227 26 -303 15z"/>
<path d="M6285 2070 c-213 -34 -422 -163 -537 -333 -98 -144 -142 -285 -142
-457 0 -131 18 -215 69 -327 82 -179 219 -316 397 -397 113 -52 196 -70 328
-70 131 0 215 18 327 69 179 82 316 219 397 397 52 113 70 196 70 328 0 216
-74 398 -223 553 -99 104 -249 190 -383 222 -82 19 -227 26 -303 15z"/>
<path d="M8845 2070 c-213 -34 -422 -163 -537 -333 -98 -144 -142 -285 -142
-457 0 -131 18 -215 69 -327 82 -179 219 -316 397 -397 113 -52 196 -70 328
-70 131 0 215 18 327 69 179 82 316 219 397 397 52 113 70 196 70 328 0 216
-74 398 -223 553 -99 104 -249 190 -383 222 -82 19 -227 26 -303 15z"/>
<path d="M11405 2070 c-213 -34 -422 -163 -537 -333 -98 -144 -142 -285 -142
-457 0 -131 18 -215 69 -327 82 -179 219 -316 397 -397 113 -52 196 -70 328
-70 131 0 215 18 327 69 179 82 316 219 397 397 52 113 70 196 70 328 0 216
-74 398 -223 553 -99 104 -249 190 -383 222 -82 19 -227 26 -303 15z"/>
<path d="M0 285 l0 -285 285 0 285 0 -6 58 c-29 267 -240 476 -511 507 l-53 6
0 -286z"/>
<path d="M2469 560 c-246 -38 -445 -251 -474 -508 l-6 -52 571 0 571 0 -6 53
c-21 185 -128 348 -289 442 -97 56 -249 83 -367 65z"/>
<path d="M5029 560 c-246 -38 -445 -251 -474 -508 l-6 -52 571 0 571 0 -6 53
c-21 185 -128 348 -289 442 -97 56 -249 83 -367 65z"/>
<path d="M7589 560 c-246 -38 -445 -251 -474 -508 l-6 -52 571 0 571 0 -6 53
c-21 185 -128 348 -289 442 -97 56 -249 83 -367 65z"/>
<path d="M10149 560 c-246 -38 -445 -251 -474 -508 l-6 -52 571 0 571 0 -6 53
c-21 185 -128 348 -289 442 -97 56 -249 83 -367 65z"/>
<path d="M12709 559 c-244 -36 -445 -250 -474 -507 l-6 -52 286 0 285 0 0 285
c0 265 -1 285 -17 284 -10 -1 -43 -5 -74 -10z"/>
</g>
</svg>
